# xmcd
#
# Track frame offsets:
#	225
#	13660
#	35155
#	46700
#	59010
#	80085
#	90042
#	102302
#	116570
#	138657
#	150132
#	162415
#	182325
#	200227
#	212202
#	224170
#	236410
#	247517
#	261880
#	285620
#	297070
#	308205
#	320250
#
# Disc length: 4435 seconds
#
# Revision: 2
# Processed by: cddbd v1.4PL0 Copyright (c) Steve Scherf et al.
# Submitted via: audiograbber 1.80
#
DISCID=47115017
DTITLE=John Lee Hooker - The Very Best
DYEAR=1900
DGENRE=
TTITLE0=One burbon,one schotch,one beer
TTITLE1=Chill out/Things Gonna Change
TTITLE2=Boom Boom
TTITLE3=Trouble Blues
TTITLE4=Mr. Lucky
TTITLE5=Dimples
TTITLE6=Whiskey And Woman
TTITLE7=Kiddio
TTITLE8=Stripped Me Nakked
TTITLE9=Boogie Chillon
TTITLE10=Crawling Kingsnake
TTITLE11=Sussie
TTITLE12=Well Meet Again
TTITLE13=Im In The Mood
TTITLE14=Erisco Blues
TTITLE15=You can lead Me Baby
TTITLE16=Good Rockin Mama
TTITLE17=I am So Worried Baby
TTITLE18=Annie Mae
TTITLE19=Little Whell
TTITLE20=Lets Make It
TTITLE21=Everybody Rockin
TTITLE22=Crawling Black Spder
EXTD=
EXTT0=
EXTT1=
EXTT2=
EXTT3=
EXTT4=
EXTT5=
EXTT6=
EXTT7=
EXTT8=
EXTT9=
EXTT10=
EXTT11=
EXTT12=
EXTT13=
EXTT14=
EXTT15=
EXTT16=
EXTT17=
EXTT18=
EXTT19=
EXTT20=
EXTT21=
EXTT22=
PLAYORDER=
